<?xml version="1.0" standalone="no"?>
<!DOCTYPE svg PUBLIC "-//W3C//DTD SVG 20010904//EN"
 "http://www.w3.org/TR/2001/REC-SVG-20010904/DTD/svg10.dtd">
<svg version="1.0" xmlns="http://www.w3.org/2000/svg"
 width="282.000000pt" height="55.000000pt" viewBox="0 0 282.000000 55.000000"
 preserveAspectRatio="xMidYMid meet">

<g transform="translate(0.000000,55.000000) scale(0.100000,-0.100000)"
fill="#000000" stroke="none">
<path d="M98 508 c-15 -11 -16 -19 -6 -58 16 -66 14 -264 -4 -337 -11 -43 -12
-65 -5 -72 7 -7 67 -11 154 -11 l143 0 11 27 c11 30 3 83 -13 83 -6 0 -19 -11
-30 -25 -19 -24 -72 -45 -117 -45 l-24 0 6 138 c3 75 11 172 18 214 7 43 9 81
6 85 -14 14 -122 15 -139 1z"/>
<path d="M416 512 c-2 -4 0 -43 5 -87 5 -44 12 -123 17 -176 15 -161 56 -214
167 -214 54 0 68 4 91 25 47 43 62 95 78 262 8 85 16 159 17 164 5 30 -3 34
-70 34 -39 0 -72 -4 -75 -9 -3 -4 -1 -37 5 -72 16 -96 16 -277 1 -322 -14 -37
-48 -57 -72 -42 -40 25 -53 202 -26 355 8 41 12 78 9 83 -6 9 -140 9 -147 -1z"/>
<path d="M860 511 c-51 -7 -49 3 -33 -132 11 -88 3 -233 -16 -295 -6 -22 -5
-36 2 -43 13 -13 143 -15 151 -2 3 4 -1 43 -9 86 -8 42 -15 104 -14 138 l1 62
24 -54 c14 -30 29 -75 33 -98 10 -52 8 -49 46 -57 30 -7 31 -6 42 46 6 29 25
82 43 118 l31 65 -7 -115 c-3 -63 -7 -133 -7 -155 l-2 -40 65 -3 c91 -3 94 0
74 84 -12 53 -15 99 -10 199 3 72 8 144 11 161 l7 31 -63 6 c-73 6 -89 -2 -89
-47 0 -44 -23 -120 -60 -200 l-32 -69 -20 44 c-35 77 -68 186 -68 223 0 33
-22 59 -47 54 -4 0 -28 -4 -53 -7z"/>
<path d="M1566 513 l-48 -4 6 -47 c16 -122 18 -221 6 -292 -7 -41 -13 -88 -14
-105 l-1 -30 68 -3 c90 -4 98 3 82 72 -14 60 -30 216 -22 216 3 0 28 -35 55
-78 47 -73 68 -125 74 -182 3 -24 6 -25 76 -28 85 -3 91 3 72 76 -20 78 -23
229 -7 312 8 41 13 78 10 83 -2 4 -35 7 -74 7 -80 0 -75 12 -58 -139 7 -54 8
-120 5 -146 l-7 -46 -41 58 c-60 85 -82 139 -83 206 -1 56 -13 79 -40 75 -5
-1 -32 -3 -59 -5z"/>
<path d="M2074 512 c-7 -4 -19 -58 -28 -120 -18 -118 -46 -222 -77 -284 -11
-21 -19 -46 -19 -58 0 -18 6 -20 68 -20 37 0 73 4 80 9 8 5 18 42 23 86 18
145 20 150 61 153 44 4 45 2 61 -141 l12 -102 58 -3 c31 -2 57 0 57 3 0 3 -11
33 -25 66 -30 71 -60 192 -75 309 -7 47 -16 91 -22 97 -11 14 -154 18 -174 5z
m129 -140 l14 -62 -32 0 -32 0 15 65 c9 35 17 64 18 62 1 -1 9 -30 17 -65z"/>
<path d="M2401 511 c-12 -8 -12 -19 -2 -72 17 -83 15 -250 -3 -324 -10 -42
-11 -64 -4 -72 15 -18 147 -18 154 0 2 7 -2 42 -11 78 -19 82 -20 139 -1 139
17 0 76 -128 83 -181 6 -45 21 -52 99 -47 34 2 50 8 52 18 1 8 -18 42 -43 75
-24 33 -56 81 -70 106 l-25 46 24 12 c55 30 73 117 34 166 -35 45 -91 65 -188
65 -47 0 -91 -4 -99 -9z m171 -48 c45 -51 17 -172 -39 -173 -10 0 -13 26 -13
95 0 86 2 95 18 95 11 0 26 -8 34 -17z"/>
<path d="M1326 502 c-2 -4 -1 -26 4 -48 18 -83 21 -181 9 -269 -7 -49 -13
-103 -13 -120 l-1 -30 75 0 75 0 -1 30 c-1 17 -7 72 -15 124 -10 75 -10 113
-1 185 7 50 13 100 15 111 2 18 -5 20 -70 23 -39 2 -74 -1 -77 -6z"/>
</g>
</svg>
